<svg xmlns="http://www.w3.org/2000/svg" viewBox="2843 56 343 343"><defs><style>.a,.c,.d{fill:none;}.b,.e{fill:#cbcbcb;}.b{font-size:20px;font-family:HelveticaNeue, Helvetica Neue;}.c,.d{stroke:#cbcbcb;}.c{stroke-width:3px;}.d{stroke-width:1px;}.e{font-size:10px;font-family:HelveticaNeue-Bold, Helvetica Neue;font-weight:700;}</style></defs><g transform="translate(2828)"><path class="a" d="M0,0H343V343H0Z" transform="translate(15 56)"/><rect class="a" width="343" height="92" transform="translate(15 56)"/><text class="b" transform="translate(90 142)"><tspan x="0" y="0">BITCOIN TO DOLLAR</tspan></text><path class="c" d="M3306.613,149.381h14.349V141.4L3337,133.909v15.472l6.44,6v8l4.038,7.5V181.16l11.815,3.624,6.325-9.8H3377.4l14.7-4.1,7.36-15.5,10.882-6h33.747s1.955,9.446,6.437,14,11.881,7.5,11.881,7.5l6.341-7.5L3480.4,181.16l12.742-25.782h12.111l35.932-6,5.717,6v8l5.848,31.92v6.17l5.553,32.2,3.686-14.884" transform="translate(-3248.113 99.492)"/><g transform="translate(0 14)"><path class="d" d="M2879.839,204.58h283.51" transform="translate(-2835.339)"/><text class="e" transform="translate(22 203)"><tspan x="0" y="0">860</tspan></text></g><g transform="translate(0 58)"><path class="d" d="M2879.839,204.58h283.51" transform="translate(-2835.339)"/><text class="e" transform="translate(22 203)"><tspan x="0" y="0">840</tspan><tspan x="0" y="12"></tspan></text></g><g transform="translate(0 99)"><path class="d" d="M2879.839,204.58h283.51" transform="translate(-2835.339)"/><text class="e" transform="translate(22 203)"><tspan x="0" y="0">820</tspan></text></g><g transform="translate(4 90)"><g transform="translate(-4 51)"><path class="d" d="M2879.839,204.58h283.51" transform="translate(-2835.339)"/><text class="e" transform="translate(22 203)"><tspan x="0" y="0">800</tspan></text></g></g></g></svg>