<svg xmlns="http://www.w3.org/2000/svg" viewBox="1155 1738 22.005 22"><path class="a" d="M12.03,1a.883.883,0,0,0-.62.31L8.88,3.84c-.22.22-.28.34-.5.54a1.059,1.059,0,0,0-.41.9C8,6.57,8,7.84,8,9.13v4.03a.892.892,0,0,0,.03.28c.08.31.28.38.5.15,1.2-1.2,2.27-2.29,3.47-3.5C13.36,8.73,14.73,7.37,16.09,6a.789.789,0,0,0,0-1.25c-1.15-1.15-2.32-2.28-3.46-3.44a.862.862,0,0,0-.6-.31m6.63,6.66a.839.839,0,0,0-.6.28c-1.15,1.16-2.31,2.3-3.47,3.47a.782.782,0,0,0,0,1.22c1.15,1.15,2.29,2.31,3.44,3.46a.759.759,0,0,0,1.22,0c1.11-1.09,2.25-2.22,3.34-3.34a1.4,1.4,0,0,0,.41-.56v-.31a1.509,1.509,0,0,0-.41-.57c-1.12-1.12-2.22-2.25-3.34-3.37a.836.836,0,0,0-.59-.28M4.78,8.09c-.13-.05-.2.05-.28.13-1.15,1.17-2.16,2.21-3.31,3.37a.628.628,0,0,0,0,.91c.62.63,1.25,1.25,1.87,1.88.54.54.94.95,1.5,1.5.16.15.3.12.38-.07A.665.665,0,0,0,5,15.47V8.63a.688.688,0,0,0-.03-.25.338.338,0,0,0-.19-.29m7.31,6.16a.9.9,0,0,0-.62.28c-1.15,1.16-2.29,2.34-3.44,3.5a.77.77,0,0,0,0,1.22c1.11,1.12,2.23,2.22,3.35,3.34a1.339,1.339,0,0,0,.56.41h.28a1.311,1.311,0,0,0,.56-.37c1.12-1.13,2.25-2.25,3.38-3.38A.828.828,0,0,0,16.13,18c-1.16-1.16-2.29-2.31-3.44-3.47A.839.839,0,0,0,12.09,14.25Z" transform="translate(1154.005 1737)"/></svg>
